<?xml version="1.0" standalone="no"?><!DOCTYPE svg PUBLIC "-//W3C//DTD SVG 1.1//EN" "http://www.w3.org/Graphics/SVG/1.1/DTD/svg11.dtd"><svg t="1588923930481" class="icon" viewBox="0 0 1099 1024" version="1.1" xmlns="http://www.w3.org/2000/svg" p-id="12239" xmlns:xlink="http://www.w3.org/1999/xlink" width="214.6484375" height="200"><defs><style type="text/css"></style></defs><path d="M893.96 271.4c0-8.5-6.5-14.6-17-14.6-19.6 0-420 0-590.4 0-11.2 0-12.2 3.9-12.2 13.9 0 135.6 0 446 0 475.9 0 21.6 5.7 27.2 21.1 27.2 40.4 0 552.8-0.1 583.1 0 12.4 0 15.3-9 15.3-20.6C893.96 618.4 893.96 300.7 893.96 271.4zM505.46 296.9c13.9-0.1 25.6 11.6 25.5 25.6-0.1 13.8-11.5 24.9-25.4 24.8-14-0.1-25.1-11.2-25.1-25.1C480.46 308.5 491.66 297 505.46 296.9zM427.76 297c13.9-0.1 25.2 11.1 25.3 25.1 0.1 14-11 25.2-25 25.3-14.1 0.1-25.1-10.8-25.3-24.9C402.76 308.4 413.96 297 427.76 297zM348.36 297c13.9-0.3 25.6 11.4 25.6 25.4-0.1 13.8-11.2 24.8-25.1 24.9-13.9 0.1-25.1-11-25.2-24.8C323.46 308.8 334.66 297.3 348.36 297zM861.66 722.8c0 13.7-5.3 18.9-19.1 18.9-172.1 0-350.1 0-522.2 0-14.5 0-13.6-5-13.6-19.2 0-108.5 0-221.9 0-330.3 0-8.9 1.6-9.9 9.8-9.9 89.1-0.1 178.6 0 267.6 0 89.9 0 180.4 0.1 270.3 0 5.6 0 7.5 1.1 7.5 7.3C861.56 499.2 861.66 613.1 861.66 722.8z" p-id="12240"></path><path d="M734.26 640.2c6.1 0 7.4 0.9 7.4 3.7 0 4.9-0.1 21.2-0.1 24.3 0 3.3-1.2 4.1-4.2 4.1-8.8 0-143.8 0-153.1 0-4.3 0-4.8-1.8-4.8-5 0-3-0.1-18.4 0-22.7 0-3.5 0.7-4.4 6.4-4.4C605.16 640.1 715.56 640.1 734.26 640.2z" p-id="12241"></path><path d="M520.36 542.4c-24.4-18.8-84.1-62.6-97.6-73-3.3-2.5-3.8-4.6-2.9-6.9 3.9-6.2 9.5-14.3 12.3-17.7 3.4-4.3 5.6-3.6 10.6 0.3 6.2 4.6 100.4 74.7 111.2 83.5 10.4 8.8 8.8 19.5-3.2 30.2-14.9 11.9-97.2 75-108.1 83.5-4.7 3.3-6.5 5.2-11.5-0.1-2.4-3.2-9.4-11.4-11.6-14.3-3.8-5-1.2-7.4 3.6-11.8C436.76 605 494.56 563 520.36 542.4z" p-id="12242"></path></svg>